<svg width="23" height="23" viewBox="0 0 23 23" fill="none" xmlns="http://www.w3.org/2000/svg">
<g clip-path="url(#clip0_1109_607)">
<path d="M22.6347 23.0001C15.2096 23.0001 7.78443 23.0001 0.359281 23.0001C0.239521 22.8802 0.11976 22.7603 0 22.6404C0 21.6034 0 20.5724 0 19.5354C0.185629 19.0918 0.586826 19.1877 0.958084 19.1697C0.958084 19.0678 0.958084 18.9899 0.958084 18.906C0.958084 18.2706 0.952096 17.6352 0.958084 16.9998C0.964072 16.6282 1.1497 16.4424 1.50898 16.4364C1.62874 16.4364 1.74252 16.4364 1.86228 16.4364C1.86228 13.709 1.86228 11.0115 1.86228 8.29015C1.46108 8.29015 1.07186 8.27816 0.688623 8.29615C0.383234 8.30813 0.149701 8.21822 0 7.94248C0 6.92346 0 5.90443 0 4.88541C0.125749 4.77751 0.239521 4.63365 0.383234 4.56771C3.98802 3.06315 7.5988 1.57058 11.2036 0.0660171C11.4072 -0.0179026 11.5868 -0.0238969 11.7844 0.0600229C15.3892 1.55859 19 3.05716 22.6048 4.55572C22.8743 4.66961 22.994 4.84944 22.994 5.14316C22.988 5.95838 22.994 6.7736 22.994 7.59482C22.994 8.14029 22.8443 8.29015 22.3054 8.29015C21.9162 8.29015 21.5329 8.29015 21.1317 8.29015C21.1317 11.0175 21.1317 13.715 21.1317 16.4364C21.2335 16.4364 21.3174 16.4364 21.4072 16.4364C21.8683 16.4364 22.0359 16.6102 22.0419 17.0777C22.0419 17.5213 22.0419 17.9589 22.0419 18.4025C22.0419 18.6542 22.0419 18.906 22.0419 19.1757C22.1737 19.1757 22.2755 19.1757 22.3772 19.1757C22.8263 19.1757 22.994 19.3496 22.994 19.8051C22.994 20.6503 22.988 21.4955 23 22.3467C23.006 22.6524 22.9102 22.8682 22.6347 23.0001ZM6.51497 19.1638C9.8503 19.1638 13.1617 19.1638 16.485 19.1638C16.485 19.1038 16.485 19.0618 16.485 19.0139C16.485 18.3425 16.485 17.6652 16.485 16.9938C16.485 16.6342 16.6826 16.4424 17.0419 16.4424C17.1497 16.4424 17.2635 16.4424 17.3772 16.4424C17.3772 13.715 17.3772 11.0175 17.3772 8.31413C13.4491 8.31413 9.53293 8.31413 5.62275 8.31413C5.62275 11.0355 5.62275 13.7329 5.62275 16.4424C5.70659 16.4424 5.77246 16.4424 5.84431 16.4424C6.35928 16.4424 6.51497 16.5982 6.51497 17.1077C6.51497 17.7851 6.51497 18.4684 6.51497 19.1638ZM22.006 7.28911C22.006 6.71366 22 6.15619 22.012 5.59873C22.018 5.42489 21.9521 5.35296 21.8024 5.29302C18.6946 4.01024 15.5928 2.71548 12.485 1.42672C12.1617 1.29484 11.8323 1.05507 11.509 1.05507C11.1737 1.05507 10.8443 1.28885 10.515 1.42672C7.40719 2.71548 4.30539 4.00425 1.1976 5.28702C1.02994 5.35895 0.976048 5.43688 0.982036 5.61671C0.994012 6.10224 0.988024 6.58778 0.988024 7.07931C0.988024 7.15124 0.994012 7.22317 1 7.28911C8.01198 7.28911 15 7.28911 22.006 7.28911ZM1 21.999C8.00599 21.999 15 21.999 21.988 21.999C21.988 21.3816 21.988 20.7822 21.988 20.1828C14.982 20.1828 7.99401 20.1828 1 20.1828C1 20.7882 1 21.3876 1 21.999ZM2.88024 8.30214C2.88024 11.0235 2.88024 13.727 2.88024 16.4244C3.46108 16.4244 4.02395 16.4244 4.5988 16.4244C4.5988 13.715 4.5988 11.0115 4.5988 8.30214C4.02395 8.30214 3.45509 8.30214 2.88024 8.30214ZM20.1138 16.4304C20.1138 13.709 20.1138 11.0115 20.1138 8.30813C19.5329 8.30813 18.9581 8.30813 18.3952 8.30813C18.3952 11.0295 18.3952 13.727 18.3952 16.4304C18.976 16.4304 19.5329 16.4304 20.1138 16.4304ZM1.95808 17.4374C1.95808 18.0308 1.95808 18.6003 1.95808 19.1697C3.1497 19.1697 4.32934 19.1697 5.50898 19.1697C5.50898 18.5823 5.50898 18.0129 5.50898 17.4374C4.32335 17.4374 3.1497 17.4374 1.95808 17.4374ZM21.0419 17.4434C19.8383 17.4434 18.6587 17.4434 17.491 17.4434C17.491 18.0308 17.491 18.6003 17.491 19.1638C18.6826 19.1638 19.8623 19.1638 21.0419 19.1638C21.0419 18.5823 21.0419 18.0188 21.0419 17.4434Z" fill="white"/>
</g>
<defs>
<clipPath id="clip0_1109_607">
<rect width="23" height="23" fill="white"/>
</clipPath>
</defs>
</svg>
