<svg width="25" height="24" viewBox="0 0 25 24" fill="none" xmlns="http://www.w3.org/2000/svg">
<path d="M0 22.5836C0.323516 22.0709 0.842363 21.8877 1.39783 21.8084C2.01435 21.7229 2.58813 21.8816 3.10698 22.2418C3.86388 22.7606 4.32779 22.7545 5.09691 22.2479C6.03083 21.6253 6.98307 21.6253 7.9231 22.2479C8.69221 22.7545 9.13781 22.7545 9.91303 22.2418C10.8347 21.6314 11.7992 21.6314 12.7148 22.2418C13.4839 22.7545 13.9539 22.7728 14.7047 22.2479C15.541 21.6558 16.6947 21.6192 17.6347 22.3089C18.2268 22.7484 18.7884 22.7301 19.3988 22.3211C19.4781 22.2662 19.5575 22.2113 19.6429 22.1563C20.4975 21.6558 21.3521 21.6497 22.2006 22.1624C22.3654 22.2601 22.5241 22.3883 22.695 22.4737C23.1589 22.6996 23.6228 22.6691 24.0684 22.4066C24.1355 22.3639 24.2027 22.315 24.2759 22.2784C24.5262 22.1502 24.7765 22.2113 24.9169 22.431C25.0573 22.6507 25.0206 22.9132 24.8009 23.0841C24.2027 23.5358 23.5312 23.719 22.8049 23.5297C22.4752 23.4443 22.1517 23.2795 21.8648 23.0963C21.1629 22.6569 20.6745 22.6385 19.9909 23.0963C18.9776 23.7739 18.062 23.7739 17.0426 23.0963C16.3712 22.6446 15.8645 22.6446 15.1931 23.0963C14.1798 23.7739 13.252 23.78 12.2448 23.1024C11.5489 22.6385 11.0606 22.6324 10.3586 23.1147C9.55899 23.664 8.72884 23.7556 7.84375 23.3466C7.69114 23.2734 7.55075 23.1757 7.41036 23.078C6.76943 22.6507 6.23227 22.6446 5.60355 23.078C5.2373 23.3344 4.85275 23.5236 4.40104 23.5786C3.80895 23.6518 3.27789 23.5114 2.77736 23.2001C2.52709 23.0414 2.26461 22.8766 1.97772 22.7972C1.59927 22.6935 1.22692 22.7911 0.885092 23.0109C0.488327 23.2856 0.256371 23.2306 0 22.8278C0 22.7484 0 22.6691 0 22.5836Z" fill="white"/>
<path d="M0 17.0655C0.115978 16.7664 0.335724 16.6626 0.653137 16.6687C1.4894 16.6809 2.33176 16.6687 3.16802 16.6748C3.47322 16.6748 3.66855 16.8152 3.71739 17.0594C3.78453 17.3951 3.56478 17.6454 3.18633 17.6515C2.63086 17.6576 2.08149 17.6515 1.52602 17.6515C1.43446 17.6515 1.349 17.6515 1.18419 17.6515C1.44056 18.0971 1.63589 18.5305 1.91668 18.8967C2.35007 19.4522 2.8445 19.9588 3.31452 20.4838C3.35114 20.5265 3.39997 20.557 3.4427 20.5998C3.65634 20.8256 3.66855 21.0881 3.48543 21.3017C3.31452 21.4971 3.00931 21.5276 2.78957 21.3139C2.33176 20.8683 1.86785 20.4166 1.45277 19.9283C0.793531 19.1409 0.366245 18.2131 0 17.2608C0 17.1998 0 17.1327 0 17.0655Z" fill="white"/>
<path d="M12.9895 16.6749C13.1238 16.6749 13.2214 16.6749 13.3191 16.6749C16.9999 16.6749 20.6745 16.6749 24.3553 16.6749C24.5628 16.6749 24.7948 16.6749 24.8924 16.8763C24.9596 17.0228 24.9962 17.2304 24.9474 17.3769C24.4102 18.9151 23.5129 20.2092 22.2738 21.2713C22.0052 21.5032 21.7061 21.5093 21.5169 21.2896C21.3215 21.0576 21.3521 20.7768 21.6268 20.5388C22.4203 19.8551 23.0673 19.0616 23.5556 18.1399C23.6228 18.0117 23.6838 17.8774 23.751 17.7431C23.7632 17.7248 23.7632 17.7004 23.7754 17.6454C23.6716 17.6454 23.574 17.6454 23.4824 17.6454C18.2329 17.6454 12.9834 17.6454 7.73997 17.6454C7.61789 17.6454 7.49581 17.6454 7.37983 17.6149C7.15398 17.56 7.038 17.4013 7.03189 17.1754C7.01969 16.9496 7.15398 16.7604 7.37983 16.7054C7.47749 16.681 7.58737 16.6749 7.69114 16.6749C9.03403 16.6749 10.3769 16.6749 11.7198 16.6749C11.8114 16.6749 11.8968 16.6749 12.025 16.6749C12.025 16.5589 12.025 16.4613 12.025 16.3575C12.025 11.3277 12.025 6.29795 12.025 1.2743C12.025 1.16442 12.0311 1.04234 12.0556 0.938571C12.1105 0.706615 12.318 0.560118 12.5378 0.572326C12.7636 0.584534 12.9529 0.749344 12.9895 0.981299C13.0078 1.08507 13.0017 1.19494 13.0017 1.29871C13.0017 6.31016 13.0017 11.3216 13.0017 16.3331C12.9895 16.4368 12.9895 16.5406 12.9895 16.6749Z" fill="white"/>
<path d="M14.9428 2.08001C14.9428 2.15936 14.9428 2.23872 14.9428 2.31807C14.9428 3.34356 14.9428 4.36904 14.9428 5.39453C14.9428 5.4983 14.9428 5.60817 14.9123 5.70584C14.8452 5.92558 14.6926 6.04156 14.4606 6.04156C14.2348 6.04156 14.07 5.93169 14.0028 5.71194C13.9723 5.61427 13.9662 5.5044 13.9662 5.40063C13.9662 4.0028 13.9662 2.59886 13.9601 1.20102C13.9601 0.956861 14.0028 0.743218 14.2409 0.621136C14.4728 0.505159 14.6621 0.602824 14.8513 0.737114C16.9023 2.18988 18.6114 3.96617 19.8994 6.13312C21.0835 8.11084 21.8527 10.2351 22.164 12.5241C22.2677 13.3054 22.3105 14.0928 22.3593 14.8803C22.3837 15.3259 22.1945 15.509 21.7489 15.509C19.3622 15.509 16.9816 15.509 14.5949 15.509C14.1493 15.509 13.9662 15.332 13.9662 14.8925C13.9662 13.104 13.9662 11.3094 13.9662 9.52089C13.9662 9.42322 13.9723 9.32556 14.0028 9.23399C14.07 9.01425 14.2348 8.90437 14.4606 8.90437C14.6865 8.90437 14.8452 9.02646 14.9123 9.2462C14.9428 9.34387 14.9428 9.45374 14.9428 9.55751C14.9428 11.1202 14.9428 12.6828 14.9428 14.2454C14.9428 14.3309 14.9428 14.4225 14.9428 14.5201C17.0976 14.5201 19.2218 14.5201 21.3949 14.5201C21.108 9.39881 18.9837 5.26024 15.0161 2.0556C14.9917 2.0617 14.9673 2.0678 14.9428 2.08001Z" fill="white"/>
<path d="M11.0361 9.25842C11.0361 11.1141 11.0361 12.9697 11.0361 14.8253C11.0361 15.3503 10.8835 15.5029 10.3464 15.5029C8.43578 15.5029 6.5191 15.5029 4.60852 15.5029C4.01643 15.5029 3.81499 15.1672 4.08968 14.6483C6.0735 10.9126 8.05123 7.18303 10.0351 3.44733C10.0778 3.36798 10.1205 3.28863 10.1754 3.21538C10.3036 3.05057 10.4807 3.00173 10.676 3.05057C10.8774 3.0994 10.9934 3.23979 11.03 3.44123C11.0422 3.52669 11.0422 3.61825 11.0422 3.70981C11.0361 5.56545 11.0361 7.40888 11.0361 9.25842ZM10.0534 5.59597C10.0412 5.58987 10.0228 5.58987 10.0106 5.58376C8.43578 8.55645 6.85483 11.5291 5.27387 14.5079C6.89145 14.5079 8.47241 14.5079 10.0595 14.5079C10.0534 11.523 10.0534 8.56255 10.0534 5.59597Z" fill="white"/>
<path d="M14.4545 8.13524C14.192 8.13524 13.9661 7.9155 13.9661 7.65912C13.9661 7.40275 14.192 7.1769 14.4545 7.1769C14.7108 7.1769 14.9367 7.40275 14.9367 7.65912C14.9428 7.9216 14.723 8.13524 14.4545 8.13524Z" fill="white"/>
<path d="M5.0174 17.1632C5.0174 16.8946 5.23104 16.681 5.49351 16.681C5.75599 16.681 5.96963 16.9007 5.96963 17.1693C5.96963 17.4379 5.74989 17.6576 5.48741 17.6515C5.23104 17.6454 5.0174 17.4257 5.0174 17.1632Z" fill="white"/>
</svg>
